<?xml version="1.0" encoding="UTF-8"?>
<!DOCTYPE svg  PUBLIC '-//W3C//DTD SVG 1.1//EN'  'http://www.w3.org/Graphics/SVG/1.1/DTD/svg11.dtd'>
<svg enable-background="new 0 0 725.2677 1781.9775" version="1.1" viewBox="0 0 725.2677 1781.9775" xml:space="preserve" xmlns="http://www.w3.org/2000/svg">
	<path d="m705.05 1113.6c-6.1583 2.8589-10.993 7.1869-17.677 7.4576-2.6012 0.1053-4.1234 1.9817-4.9954 4.3121-1.2689 3.3906-0.8054 6.392 3.3797 6.4166 5.7682 0.0342 10.245 1.2341 12.812 7.1293 1.0067 2.3115 5.3729-0.0098 7.0432 3.9604-8.739 3.069-15.576 11.617-26.509 7.766-0.9119-0.3212-1.9781-0.2648-2.9739-0.2764-3.7344-0.0437-5.2723 2.509-6.0673 5.5552-0.9734 3.7299 1.9565 4.9301 4.5402 5.1333 10.628 0.8363 18.242 8.3912 27.941 11.257-1.0192 3.4625-3.3425 2.9766-4.9592 2.4731-5.3019-1.6506-8.8548-0.6656-10.871 5.0536-1.1862 3.3645-4.3204 3.7194-7.5733 2.6996-4.1313-1.2952-8.2824-2.5288-12.437-3.7488-1.9132-0.5618-3.8317-1.3171-5.7886-1.4738-3.5671-0.2853-5.6102 2.1089-6.4958 5.1077-0.9086 3.0767 1.9534 3.9603 4.0072 4.7699 10.22 4.0292 20.536 7.819 30.749 11.867 3.5007 1.3875 7.9233 1.6503 9.6516 6.5072-4.0944 2.1949-7.2747-0.3079-10.438-1.469-10.315-3.7864-20.53-7.8475-30.792-11.779-1.8639-0.714-3.7328-1.4727-5.6649-1.9386-3.7758-0.9102-5.6426 1.7572-6.7775 4.5182-1.2717 3.0941 1.7645 3.9004 3.7087 4.8729 5.6578 2.8308 11.364 5.576 17.138 8.1588 4.4156 1.9746 7.7227 4.344 5.103 9.8213-1.962 4.1023 0.3287 6.1049 3.5375 7.913 3.6404 2.0514 7.6329 3.6833 10.842 7.17-3.093 2.6949-4.825 0.3124-6.6483-0.4202-5.1241-2.0586-9.5368-6.2115-15.88-4.4495-2.2691 0.6302-4.3405-1.4008-6.3745-2.4899-6.4595-3.459-12.828-7.0928-19.343-10.443-5.4512-2.8036-7.5874-2.1619-11.149 2.2024-2.4479 3-2.1232 5.3861 1.0078 7.4943 4.6964 3.1621 9.3808 6.3431 14.121 9.4382 5.7878 3.7793 11.821 6.7957 15.16 13.82 2.2021 4.6335 8.0478 6.7273 12.514 9.6208 1.3747 0.8904 3.1625 1.9326 2.0588 3.817-1.0966 1.8724-2.9823 1.0011-4.3835 0.1229-3.386-2.1228-6.7913-4.2456-9.9764-6.6499-3.107-2.3452-5.8081-3.158-8.3829 0.582-3.4426 5.0002-7.079 3.4841-10.958 0.4462-5.7689-4.5171-11.654-8.8866-17.527-13.269-2.6678-1.9911-5.4247-3.8628-8.1408-5.7893-3.3809-2.3984-5.722-0.2206-7.7039 2.0546-2.3406 2.6871 0.2966 4.2007 1.9587 5.6185 14.706 12.542 29.468 25.018 44.2 37.529 2.0288 1.7231 4.0402 3.4744 5.9542 5.3217 0.9945 0.9598 1.6505 2.3324 0.2289 3.353-0.6256 0.4491-2.0593 0.4824-2.7051 0.0604-1.9401-1.2677-3.6934-2.8282-5.4833-4.318-14.342-11.939-28.676-23.888-43.015-35.831-1.024-0.8529-2.0768-1.6715-3.1058-2.5184-2.8057-2.3086-5.8473-3.8043-8.7681-0.5208-3.0156 3.3905 0.2614 5.5154 2.2819 7.428 7.0157 6.6409 14.247 13.054 21.327 19.627 7.1 6.5918 7.1861 6.692 2.823 15.352-1.3242 2.6282-0.7736 4.3864 1.0436 6.1993 3.5372 3.5294 7.1085 7.0251 10.612 10.588 1.3837 1.4071 2.7352 2.8757 3.8813 4.474 0.5738 0.8 0.5186 2.1342-0.4356 2.6603-0.7308 0.4028-2.1462 0.5675-2.6926 0.1313-2.5886-2.067-4.9836-4.3766-7.4471-6.6003-4.6182-4.1687-7.9818-10.025-14.919-11.082-0.3087-0.0469-0.6461-0.2391-0.8698-0.4636-11.284-11.326-22.507-22.713-32.86-34.914-2.2665-2.6713-0.9373-4.7565 1.2059-6.8636 22.502-22.123 32.369-49.737 35.393-80.515 2.09-21.27 3.3421-42.419 0.6335-63.782-6.0759-47.921-27.815-86.288-67.65-114.1-19.718-13.769-41.012-23.457-65.182-25.949-4.6337-0.4778-9.2928-0.9238-13.944-0.9675-7.1248-0.0671-7.6631 0.3934-6.8074 7.2923 1.2704 10.241 2.9376 20.434 4.5235 30.635 11.204 72.059 22.404 144.12 33.667 216.17 2.8295 18.1 5.8792 36.166 8.8345 54.247 0.6939 4.2455 2.0412 8.5189-0.9854 12.488-2.2611 2.9652-0.4605 5.7219 0.6187 8.4513 6.0024 15.18 11.968 30.376 18.114 45.498 2.1021 5.1724 3.1233 9.4641-3.5815 12.131-3.6634 1.4568-2.7708 4.7594-1.704 7.7501 2.6852 7.5286 5.2797 15.09 8.0005 22.606 0.8014 2.2135 2.3117 4.7872 0.9904 6.6855-3.7806 5.431-1.6756 10.854-0.874 16.362 6.6791 45.9 10.075 92.027 9.6626 138.43-0.4063 45.649-13.939 86.702-44.052 121.34-30.679 35.287-69.186 56.782-116.06 62.349-35.059 4.1641-69.768 3.7537-103.84-7.0239-40.717-12.88-70.849-37.508-87.068-77.746-10.166-25.222-17.013-51.243-17.083-78.601-0.1343-52.236 32.662-85.516 67.632-98.247 41.843-15.234 99.323-1.5626 116.15 54.415 4.7167 15.689 8.6063 31.515 8.9909 47.965 0.6974 29.824-11.019 52.819-37.295 68.062-15.874 9.2086-32.312 17.269-48.686 25.491-12.76 6.4075-12.957 10.53-1.2703 19.411 5.6206 4.2715 11.83 7.5493 18.394 9.9686 28.803 10.617 58.429 12.725 88.512 7.3094 16.669-3.0011 31.389-10.874 45.143-20.528 20.419-14.331 37.357-32.131 51.385-52.671 7.2675-10.641 10.525-22.982 13.097-35.394 5.1854-25.026 4.5967-50.332 2.9518-75.656-2.1654-33.336-8.8844-65.984-15.112-98.693-1.3687-7.1901-2.0031-13.273 6.5915-16.188 3.4217-1.1606 4.1638-4.2391 3.4892-7.4127-1.6607-7.8136-3.5298-15.584-5.3609-23.36-0.8089-3.4346-2.611-5.0704-6.4924-4.12-4.8016 1.1757-6.6417-1.9968-7.3344-6.0133-3.508-20.342-6.9468-40.697-10.41-61.047 3.7244-28.578-5.1551-55.985-8.0658-83.932-2.897-27.813-7.6482-55.43-11.422-83.155-5.7033-41.9-11.26-83.82-16.888-125.73-1.329-9.8984-2.7722-19.782-3.9981-29.693-0.4847-3.9176-2.1453-5.3427-5.9857-3.9175-29.059 10.785-55.882 24.516-75.683 49.833-23.437 29.966-29.5 88.113 2.286 124.53 2.4713 2.8309 5.7 5.4407 6.7198 9.8711-4.5763 1.7466-7.8278-0.1794-11.027-1.672-10.254-4.7845-18.111-12.269-24.195-21.75-10.38-16.174-16.775-34.024-21.828-52.381-2.9114-10.576-5.8641-21.171-6.4538-32.266-2.3134-43.513 13.635-80.107 42.329-111.81 19.408-21.446 43.336-36.243 70.228-46.38 7.68-2.8951 9.998-2.9065 8.3022-13.495-7.3717-46.031-14.059-92.171-21.049-138.26-0.5318-3.5066-1.4905-6.9484-2.289-10.594-11.179 5.8777-11.085 5.7932-19.636-3.7537-15.561-17.372-31.249-34.631-46.876-51.943-3.1007-3.4351-6.6889-6.5192-6.8986-11.754-0.0977-2.439-2.0936-4.1028-3.6443-5.8244-4.9034-5.4439-9.8955-10.808-14.786-16.264-3.5564-3.9672-7.029-8.0106-10.488-12.064-0.9261-1.0852-1.2303-2.6047-0.2997-3.6492 1.6115-1.8085 3.0482-0.3229 4.1158 0.8539 7.8306 8.6314 15.695 17.236 23.336 26.034 3.6897 4.248 6.7704 8.3497 13.042 3.392 2.9723-2.3496 5.6104 0.5508 7.6573 2.7221 4.7989 5.0906 9.5035 10.272 14.178 15.478 12.465 13.883 24.823 27.864 37.376 41.668 4.5565 5.0107 7.3889 4.6364 11.112-0.342 2.9387-3.9296-0.0216-6.2097-2.1389-8.572-16.231-18.109-32.499-36.186-48.85-54.187-10.3-11.34-20.778-22.519-31.139-33.803-1.8003-1.9606-3.5081-4.022-5.0902-6.1613-1.1055-1.4948-3.227-3.428-0.9534-5.0435 1.9989-1.4204 3.5356 0.7886 4.8604 2.2678 19.999 22.329 39.993 44.662 60.004 66.981 8.2276 9.1763 16.408 18.398 24.778 27.443 4.0374 4.3631 5.9091 4.0625 9.7088-0.0695 2.6206-2.8499 2.1985-5.1388-0.2364-7.7646-6.5704-7.0854-13.042-14.262-19.536-21.418-10.075-11.102-20.167-22.19-30.193-33.336-5.4224-6.0291-5.5999-6.2389-0.9933-12.939 2.7516-4.0023 0.3145-6.041-1.9656-8.5071-7.0085-7.58-14.01-15.167-20.981-22.781-1.3446-1.4686-2.6775-2.9852-3.7542-4.649-0.7331-1.1328-0.9037-2.7211 0.6298-3.3868 0.6765-0.2937 2.1059 0.0927 2.6342 0.6763 4.6915 5.1835 9.5263 10.272 13.806 15.786 9.6453 12.427 23.778 19.916 34.033 31.761 12.86 14.854 26.561 28.982 39.976 43.352 3.0691 3.287 4.3812 6.7636 4.9121 11.441 1.7628 15.534 4.5014 30.958 6.8529 46.426 6.4063 42.138 12.91 84.261 19.155 126.42 2.3663 15.977 2.0524 15.346 17.612 14.462 66.41-3.7752 126.36 12.038 174.65 60.404 25.516 25.56 40.564 57.329 51.793 91.293 6.8961 20.859 7.8705 41.582 2.732 62.758-0.8029 3.3091-0.912 6.0044 3.4688 6.5303 1.7533 0.2107 3.4892 1.2393 3.6335 2.9531 0.4016 4.7689 4.5495 6.8939 7.3902 10.335zm-216.53 255.89c1.7206 8.959 3.6857 18.042 6.6686 26.869 1.0793 3.1941 3.4776 3.6803 6.4244 2.5195 5.8678-2.3114 11.74-4.6133 17.624-6.8805 1.8561-0.7152 2.6389-2.0638 2.11-3.882-2.7856-9.5718-4.9733-19.66-10.644-27.778-3.7362-5.3481-6.3106-10.744-8.2418-16.74-4.6873-14.554-9.4429-29.085-14.153-43.632-1.4019-4.3301-4.4689-5.4657-8.5984-4.5471-4.9027 1.0906-3.8506 4.5629-3.0433 7.8644 2.7636 11.302 5.912 22.524 8.2349 33.914 2.1514 10.549 7.7584 20.78 3.6183 32.291z"/>
	<path d="m589.69 442.51c-2.9778 3.0323-5.1201 0.6061-7.3122-0.3885-20.314-9.2177-40.595-18.51-60.935-27.67-3.5177-1.5841-7.3831-5.0822-11.088-2.4196-4.2745 3.0723-6.8859 8.0324-9.0766 12.899-1.051 2.3351 0.8693 3.8181 2.5894 4.7594 5.5478 3.036 11.233 5.8202 16.812 8.8014 2.9052 1.5524 5.1297 0.9466 6.7518-1.7996 2.9481-4.9909 6.622-4.221 11.021-1.9474 13.019 6.729 26.211 13.124 39.247 19.82 8.069 4.1445 8.4626 5.5488 5.0753 14.12-0.7336 1.8561-1.5152 3.7054-2.4401 5.4711-1.8112 3.4573-4.2603 4.9-8.1077 2.6663-15.265-8.8623-31.322-16.611-45.564-26.881-7.1741-5.1729-13.877-11.096-21.775-15.295-7.544-4.0109-7.5981-3.9092-13.076 2.7513-0.6348 0.7721-1.3009 1.5206-1.902 2.3181-4.981 6.6067-4.9708 7.0347 1.6118 11.572 3.8367 2.6447 7.8295 5.0643 11.77 7.5569 3.5503 2.2458 6.7476 5.6198 11.389 1.338 1.7907-1.6518 4.4365 0.0731 6.4451 1.3278 14.973 9.3523 29.899 18.78 44.937 28.026 4.3367 2.6662 4.9659 5.8644 2.6099 10.064-0.4881 0.8703-0.8823 1.7928-1.3341 2.6839-5.4379 10.725-6.3093 10.971-16.025 4.3338-12.929-8.8323-25.866-17.653-38.748-26.554-3.5101-2.4253-7.4998-4.5436-6.426-10.137 0.621-3.2345-2.3163-4.4975-4.507-5.9363-5.5683-3.6571-11.128-7.3325-16.789-10.841-3.7113-2.2997-4.8828-4.2877-2.0267-8.6776 17.476-26.861 32.553-55.06 44.101-84.968 12.194-31.581 20.268-64.137 19.546-98.331-0.1403-6.642-1.0231-13.271-1.6453-19.899-0.3948-4.2055 0.5357-6.5643 5.5311-7.4316 5.4924-0.9535 10.72-3.5139 16.01-5.5136 2.6314-0.9946 6.4125-1.2846 5.0498-5.7635-1.3807-4.5379-5.8561-7.5266-9.6711-6.6291-0.3209 0.0755-0.6844 0.1598-0.9241 0.3628-7.6718 6.4971-13.116 0.2543-18.985-3.347-3.1007-1.9028-2.0284-5.0285-0.775-6.9306 1.5615-2.3698 4.3543-3.9283 7.1622-6.2986-5.4955-4.8236-9.2836-10.122-16.933-7.3819-3.1465 1.1273-5.0528-1.3395-6.4639-3.5578-11.416-17.946-32.037-19.285-50.686-10.578-17.922 8.3682-32.228 20.908-43.471 37.233-24.118 35.021-37.726 73.984-43.87 115.74-4.1771 28.393-5.4388 56.896-4.1527 85.65 1.595 35.66 4.5246 71.104 10.828 106.25 0.5226 2.9136 1.9872 6.6509 0.1848 8.7833-5.3044 6.2758-0.5193 9.4714 3.1305 13.205 24.444 25.008 48.9 50.006 73.349 75.01 1.1626 1.1889 2.3729 2.341 3.435 3.6152 0.879 1.0546 1.5286 2.4191 0.0865 3.4225-1.2778 0.8891-2.4953 0.1176-3.4635-0.8865-6.9352-7.191-13.808-14.443-20.805-21.574-18.897-19.259-37.806-38.507-56.795-57.676-6.7427-6.8067-6.8557-6.6992-14.638-0.7025-1.3192 1.0165-2.6665 2.0059-3.9089 3.1112-5.2362 4.6581-5.5729 5.4775-1.1462 10.483 6.3931 7.2292 13.274 14.026 19.9 21.052 2.7384 2.9039 5.4102 3.4315 8.5874 0.5673 3.5419-3.1927 6.6149-1.7401 9.5246 1.2546 16.715 17.203 33.449 34.389 50.231 51.526 3.1407 3.2073 3.4118 6.2696 0.2968 9.5613-0.6866 0.7254-1.323 1.4986-2.0112 2.2222-6.237 6.5566-7.223 9.5706-15.313 0.5925-14.711-16.326-30.096-32.046-45.182-48.036-1.5964-1.6921-3.7094-3.2485-4.5041-5.2883-5.1618-13.25-17.29-20.771-25.473-31.506-2.3624-3.099-4.7681-4.1891-8.3955-1.5596-3.8048 2.7578-5.2749 0.0797-6.0677-3.3226-3.3283-14.284-5.6454-28.753-7.7593-43.25-3.5069-24.049-6.8615-48.119-8.9539-72.347-3.3288-38.543-4.7093-77.088-1.7776-115.75 1.8922-24.95 4.9251-49.695 10.326-74.13 6.2245-28.159 16.287-54.838 30.558-79.945 18.502-32.552 39.027-63.607 65.639-90.244 8.9764-8.9848 18.597-17.176 29.586-23.654 22.919-13.512 36.594-12.535 57.43 4.3124 18.093 14.629 32.524 32.421 44.316 52.367 20.339 34.402 30.937 71.928 36.042 111.35 4.9153 37.951 3.1619 75.78-0.4963 113.64-0.0958 0.9931-0.2546 1.9828-0.4346 2.9647-1.8615 10.152-1.8584 10.076-12.377 8.0326-14.699-2.8555-29.418-5.6072-44.14-8.3394-9.111-1.6909-9.6888-1.3062-12.977 7.6487-0.6885 1.8749-1.3565 3.7579-1.9944 5.6506-0.5687 1.6875-0.538 3.4051 0.9395 4.5508 3.3045 2.5624 7.6115 2.1963 11.333 3.6317 4.4836 1.7295 7.6025 0.2583 9.5765-4.2732 1.4686-3.3715 4.7117-3.5012 7.7548-2.7854 11.019 2.5921 22.008 5.315 32.992 8.0556 4.2578 1.0624 5.9028 3.9713 5.3843 8.2359-0.1206 0.9913-0.1526 1.9933-0.2687 2.9853-1.3957 11.929-2.3301 12.548-13.621 9.0778-7.9583-2.4459-15.909-4.9158-23.883-7.3093-4.7847-1.4361-9.2818-2.9652-13.14-6.6649-4.4811-4.2972-10.9-4.5427-16.766-5.5867-2.1328-0.3794-3.6978 0.7647-5.066 2.4868-8.7278 10.985-7.3297 16.073 5.8756 20.247 4.0336 1.2749 8.0197 3.4443 12.552 1.3488 1.9349-0.8945 3.906 0.3977 5.7584 1.0377 11.644 4.0235 23.308 7.9968 34.878 12.227 7.9529 2.9078 8.6971 4.4138 7.3948 12.621-0.3122 1.9669-0.7964 3.9252-1.4016 5.8236-1.8558 5.8217-2.7689 6.4372-8.6711 4.0635-12.666-5.094-25.213-10.484-37.804-15.765-4.1987-1.7613-8.0445-3.7365-6.2034-9.5086 0.524-1.6428 0.4636-3.5248-1.2039-4.4633-5.5228-3.1085-11.234-5.8301-17.535-7.0067-1.7813-0.3327-3.4481 0.2455-4.3083 1.826-2.5143 4.6198-7.4416 8.7831-6.7555 14.036 0.576 4.409 6.6058 4.9539 10.37 6.7511 18.627 8.8945 37.406 17.47 56.107 26.209 2.8632 1.3385 6.2391 2.097 7.9197 5.4107zm14.965-102.53c0.3493-4.334-1.924-6.592-6.2414-7.2257-8.2276-1.2076-16.442-2.5019-24.667-3.7317-4.2951-0.6422-7.9669-2.0126-7.6461-7.315 0.31-5.1248-2.701-5.9931-6.8956-6.2106-9.0232-0.4677-9.8735 0.0634-12.072 9.2-0.3896 1.6188-0.7701 3.2402-1.1906 4.851-1.0815 4.142 0.654 6.2041 4.7367 6.9776 16.011 3.0337 31.99 6.2361 48.006 9.2411 4.2247 0.7927 6.2847-1.2957 5.97-5.7867zm-14.271-29.648c1.8105 0 3.8011-0.0543 5.7876 0.0122 3.2649 0.1093 6.1992-0.3419 6.1919-4.4953-0.0066-3.7275-0.2948-7.54-5.1036-8.3554-1.6185-0.2744-3.3176-0.0377-4.9564-0.2321-9.3967-1.115-20.185 2.9438-27.186-7.2583-0.2882-0.4197-1.2098-0.4317-1.8489-0.5794-6.9915-1.6154-10.496 0.9261-11.429 8.2759-1.5206 11.983-0.0562 14.118 11.705 12.545 8.9926-1.202 17.771-1.1532 26.84 0.087zm-36.754-35.857c0.853 2.8311-1.9565 7.6333 2.8463 9.0991 3.5663 1.0885 8.0837 2.0108 10.512-2.7124 1.9865-3.8648 5.4363-4.4018 9.2304-4.5917 4.9673-0.2485 9.9338-0.5995 14.884-1.0797 3.4661-0.3363 4.2245-2.4438 3.4847-5.6568-1.3028-5.6584-3.0106-6.9136-8.8392-6.772-7.575 0.1841-14.95 2.1024-22.721 1.2359-7.6493-0.8531-9.5103 1.8646-9.3965 10.478zm-3.422-31.226c0.5775 3.945 1.172 7.8876 1.727 11.836 0.3777 2.6871 1.6308 4.3597 4.5952 3.9709 3.0212-0.3961 6.5861-0.7132 5.7519-5.0293-1.3237-6.8475 2.621-8.859 8.1118-9.9039 2.2864-0.4351 4.5611-0.9713 6.8004-1.605 4.6939-1.3284 5.1511-2.7219 2.7336-6.9334-1.8874-3.2878-4.3525-4.9993-8.2017-3.6907-5.9842 2.0344-11.976 4.0522-17.912 6.2187-2.277 0.8309-4.1419 2.2446-3.6057 5.1369z"/>
	<path d="m34.202 1140.3c8.7664-5.3156 17.826-5.4989 26.263-7.6405 5.1383-1.3043 10.469-1.8403 15.628-3.0763 4.7392-1.1354 9.5399-1.8138 11.469-7.9535 1.4648-4.6627 6.8819-4.6395 11.014-5.5056 16.582-3.4747 33.205-6.7523 49.794-10.189 11.384-2.3583 22.713-4.9858 34.114-7.2551 9.2214-1.8356 13.802 2.8208 12.469 12.209-0.6706 4.7252-4.5202 5.3362-8.0096 6.1726-11.631 2.7877-23.3 5.4161-34.956 8.0984-15.865 3.6509-31.725 7.3243-47.601 10.927-5.443 1.235-10.98 3.3804-15.357-2.689-1.9434-2.6947-4.9227-0.9199-7.4294-0.3933-11.702 2.4587-23.375 5.061-35.099 7.4087-3.6124 0.7233-7.3804 2.3643-12.301-0.1135z"/>
	<path d="m41.697 1002.7c8.9485 0.6824 17.874 1.4545 26.74 2.9807 5.017 0.8636 9.9224 1.2648 11.363-5.8788 1.0395-5.1563 5.2949-4.9119 9.5775-4.3 22.358 3.1949 44.734 6.2609 67.107 9.3533 8.2208 1.1364 16.465 2.1167 24.668 3.3635 6.2059 0.9431 7.9718 3.3506 7.3994 9.3575-0.5478 5.7479-2.8435 7.4094-9.6299 6.8379-28.798-2.4256-57.596-4.8691-86.392-7.3132-4.9738-0.4221-9.6268-1.4166-14.249-3.8265-7.5199-3.9209-16.204-2.7714-24.368-3.8523-8.877-1.1755-17.854-1.5881-26.786-2.3627-1.3172-0.1141-2.6534-0.2721-3.9211-0.6245-1.3529-0.3758-2.327-1.2813-2.1614-2.8541 0.1703-1.6169 1.4258-2.3226 2.7715-2.241 5.9661 0.3626 11.922 0.8915 17.881 1.3602z"/>
	<path d="m19.659 1039.5c2.7062-4.0402 6.2576-3.1223 9.34-3.149 12.965-0.1127 25.931-0.0962 38.897-0.094 3.9909 6e-4 7.9261 0.1948 11.5-2.2828 3.2168-2.2297 7.0728-1.6694 10.678-1.4485 27.885 1.7091 55.813 1.8364 83.728 2.4576 1.9926 0.0443 4.0069 0.0692 5.9681 0.3772 5.2579 0.8256 7.0749 3.2244 7.2565 8.8599 0.1635 5.0792-2.3719 6.9102-7.2299 7.3313-17.912 1.5532-35.875 0.8817-53.806 1.5267-12.622 0.4539-25.267 0.2343-37.889 0.6801-5.6127 0.198-10.012-0.5129-10.868-7.1373-0.6439-4.9834-4.278-5.1523-8.1463-5.1437-12.967 0.0292-25.935 0.0387-38.901-0.072-3.2437-0.0278-6.6706 0.7554-10.527-1.9055z"/>
	<path d="m43.275 1171.2c1.5137-3.9293 4.9343-3.7684 7.622-4.493 8.9914-2.4242 18.083-4.4752 27.089-6.8458 6.989-1.8396 14.222-2.8103 19.912-8.3317 2.1436-2.0803 6.0855-2.446 9.2904-3.2723 27.079-6.9817 54.175-13.902 81.274-20.805 4.0671-1.036 8.5868-3.4524 11.339 2.0924 3.2633 6.5754 4.7976 12.047-5.6327 14.978-28.518 8.0138-56.952 16.331-85.355 24.746-5.3277 1.5782-9.1221 1.2694-10.942-4.6514-1.4824-4.8232-4.8927-4.4731-8.8063-3.4252-13.503 3.6157-27.041 7.1014-40.572 10.611-1.5499 0.4021-3.1609 1.2434-5.2182-0.6031z"/>
	<path d="m118.28 1218.4c-3.2706-1.0585-5.6128 0.3322-8.0496 1.3951-10.967 4.7845-21.949 9.533-32.923 14.301-1.5248 0.6626-2.9889 1.4972-4.5593 2.0148-2.2966 0.7565-5.1989 3.2734-6.7524-0.353-1.2167-2.84 1.8836-3.8431 3.9081-4.7877 3.9135-1.8257 7.9114-3.4733 11.895-5.1459 8.2745-3.4741 16.574-6.8887 24.84-10.383 3.8947-1.6462 7.1949-3.7618 5.8523-8.9069-1.2719-4.8741 1.0726-7.2103 5.4917-8.9066 28.239-10.84 56.384-21.928 84.611-32.801 5.8867-2.2673 7.9903-1.1761 10.128 4.1804 2.2641 5.6732 1.7373 7.7139-3.7909 10.276-27.449 12.723-54.97 25.29-82.457 37.931-2.7893 1.2826-5.5733 2.2343-8.1927 1.1854z"/>
	<path d="m165.6 722.42c2.1299-0.1324 3.2477 1.8154 4.6515 3.066 9.1888 8.1868 18.283 16.479 27.407 24.739 1.4784 1.3384 2.724 3.3345 4.4547 3.9309 14.828 5.1089 23.526 17.996 34.847 27.464 13.769 11.516 26.74 23.992 39.927 36.191 2.3203 2.1466 6.324 4.0528 5.2906 7.7989-1.2523 4.5397-4.7888 8.0981-8.869 10.365-3.2864 1.8256-5.4127-1.5421-7.5758-3.4075-13.605-11.732-27.135-23.551-40.707-35.321-8.0432-6.9756-16.061-13.982-24.201-20.844-3.9824-3.3568-6.7314-6.5934-2.1266-11.526 3.5738-3.8284 1.0215-6.4265-2.0004-9.0726-9.7563-8.5433-19.421-17.192-29.063-25.865-1.4527-1.3066-2.817-2.8271-3.8078-4.4949-0.7869-1.3243 0.0208-2.5078 1.7732-3.0244z"/>
	<path d="m68.951 851.89c1.3067 0.7169 2.7274 1.5803 4.2174 2.3005 12.265 5.9295 24.595 11.729 36.792 17.796 4.6607 2.3187 8.6007 3.5042 11.796-2.1041 2.3306-4.0908 5.5571-3.6482 9.3435-1.6107 26.628 14.328 53.366 28.45 79.978 42.807 6.9798 3.7654 7.291 5.0295 5.0066 10.733-2.8956 7.2297-4.8168 7.9866-11.973 4.567-26.082-12.463-52.154-24.946-78.227-37.427-1.7979-0.8607-3.9896-1.3609-5.299-2.7082-13.871-14.273-32.933-19.396-49.744-28.47-1.4267-0.7701-2.8421-1.5984-4.1181-2.5864-0.3504-0.2714-0.3812-1.2886-0.1971-1.8433 0.3233-0.9743 1.15-1.503 2.4247-1.4538z"/>
	<path d="m189.35 973.34c-1.001-0.2178-2.6396-0.506-4.2414-0.9327-27.311-7.2756-54.699-14.234-82.29-20.377-1.944-0.4327-3.8361-1.1003-5.75-1.6664-3.9896-1.1804-5.8929-3.4322-5.6726-8.0057 0.38-7.8893-9e-4 -8.1974-7.3791-10.221-13.468-3.6926-26.985-7.2057-40.476-10.816-1.5785-0.4224-3.229-0.7941-4.6172-1.589-0.4739-0.2715-0.4234-1.8005-0.2676-2.6949 0.0864-0.4959 0.8968-1.2383 1.361-1.2241 1.2766 0.0392 2.5775 0.3057 3.8076 0.682 13.67 4.1814 27.341 8.3581 40.977 12.647 2.571 0.8087 5.3231 2.0718 7.7648 1.2772 6.9477-2.261 13.123 0.3991 19.399 2.3447 26.362 8.1712 52.706 16.399 79.011 24.752 7.0331 2.2335 8.2672 4.7227 6.3286 10.82-1.3469 4.237-2.7721 5.2178-7.9546 5.0038z"/>
	<path d="m29.193 1107.6c1.8489-3.4342 4.7221-3.1276 7.2398-3.5033 12.797-1.9103 25.586-3.8916 38.413-5.5724 3.938-0.5159 6.3727-1.9417 6.0661-6.1346-0.496-6.7833 3.5277-8.2136 9.2069-8.8389 20.466-2.2526 40.894-4.8599 61.345-7.2552 9.5602-1.1198 19.139-2.0787 28.713-3.0785 6.5038-0.6793 8.2783 0.4923 9.2112 5.9564 1.077 6.3079-0.3392 8.7504-6.5243 9.8097-30.445 5.2139-60.913 10.29-91.374 15.41-0.6538 0.11-1.3652 0.3492-1.9714 0.2032-18.013-4.3427-35.26 2.4269-52.888 3.6149-1.6532 0.1115-3.3045 0.3141-4.9578 0.3248-0.5967 0.0038-1.1963-0.432-2.4794-0.9359z"/>
	<path d="m254.76 857.76c-1.3715 4.112-4.1196 7.5142-7.4908 10.216-3.1188 2.4996-5.5785-0.3315-7.9039-2.0408-23.085-16.971-46.14-33.982-69.19-51-1.3361-0.9866-3.0486-1.881-3.7488-3.2473-7.3995-14.441-22.373-20.36-33.799-30.248-3.0173-2.6113-6.3472-4.8582-9.4372-7.3901-1.2566-1.0295-2.6628-2.3843-0.8466-4.0599 1.1655-1.0754 2.4475-0.4998 3.5819 0.3342 5.9058 4.3414 11.848 8.6339 17.711 13.033 5.8619 4.3989 11.697 8.8374 17.442 13.387 3.4866 2.761 6.5575 4.3097 10.203 0.0049 3.6238-4.2789 7.0304-1.6295 10.338 0.9846 14.9 11.776 29.838 23.504 44.775 35.234 7.8609 6.1732 15.751 12.309 23.619 18.474 2.0954 1.6421 4.3261 3.1986 4.7471 6.3194z"/>
	<path d="m54.372 883.11c1.8323 0.6954 4.307 1.6197 6.7708 2.5723 12.384 4.7885 24.756 9.6084 37.154 14.362 3.4313 1.3159 6.7086 2.5335 9.945-1.036 2.363-2.6063 5.519-1.2907 8.3509-0.0867 28.123 11.957 56.289 23.816 84.354 35.909 6.5085 2.8044 7.171 10.598 1.7256 15.183-2.1128 1.779-4.2458 1.2006-6.5291 0.3593-28.986-10.681-57.994-21.304-86.974-32.003-3.1257-1.154-6.5024-2.5182-6.4751-6.6288 0.0308-4.6258-2.9355-6.0469-6.5426-7.5601-12.561-5.2691-25.141-10.467-38.078-14.76-1.8788-0.6235-3.7468-1.3399-5.5066-2.2358-0.8388-0.4269-1.4798-1.3802-1.0417-2.506 0.3692-0.9487 0.9551-1.7108 2.8474-1.5703z"/>
	<path d="m255.8 641.89c2.723 0.3106 3.7963 2.1056 5.1107 3.5691 7.5478 8.4028 15.119 16.785 22.614 25.235 2.6638 3.0031 5.1925 6.0537 9.4354 6.9127 3.1421 0.6361 5.06 3.0746 7.0537 5.2825 17.811 19.726 35.599 39.472 53.379 59.226 2.1773 2.4189 5.4255 4.8196 2.7519 8.502-2.9016 3.9965-6.032 8.2561-11.186 9.3427-2.9226 0.6161-4.3631-2.626-6.0967-4.5101-12.822-13.936-25.568-27.941-38.346-41.918-5.6035-6.1291-11.176-12.288-16.858-18.343-3.3062-3.523-5.232-6.833-0.8086-11.014 3.4976-3.3058 0.767-5.9907-1.4935-8.4794-7.593-8.3597-15.235-16.674-22.83-25.033-1.554-1.7104-3.262-3.3763-4.386-5.3541-1.0427-1.8344 0.2783-2.9621 1.6604-3.4184z"/>
	<path d="m323.49 781.79c-1.7809 4.481-5.1805 8.2494-9.4702 10.735-3.9018 2.261-6.04-1.868-8.0974-4.0967-18.76-20.322-38.51-39.664-58.085-59.181-0.9424-0.9396-2.1877-1.792-2.6688-2.9449-6.4125-15.368-20.576-23.995-31.031-35.835-1.3197-1.4947-2.8953-2.7638-4.2102-4.2621-1.3328-1.5187-2.7441-3.4495-1.0742-5.2736 2.0464-2.2354 3.5866 0.0837 4.8737 1.3651 5.4282 5.405 10.755 10.912 16.104 16.397 3.2535 3.3365 6.4645 6.7144 9.7209 10.048 2.0794 2.1285 3.5576 5.0337 6.4658 6.1157 3.5701 1.3283 5.1125-2.3909 7.6705-3.6344 2.5039-1.2175 4.5221-0.4843 6.3008 1.3331 2.5626 2.6187 5.0665 5.2947 7.5978 7.9441 17.027 17.821 34.071 35.626 51.06 53.484 2.0274 2.131 4.4925 4.0732 4.8437 7.8068z"/>
	<path d="m187.66 701.05c2.3179-0.351 3.4046 1.5576 4.7808 2.9105 8.3022 8.1611 16.494 16.437 24.913 24.475 3.6315 3.4673 6.6889 8.6725 13.392 5.1719 2.2305-1.1647 4.2973 1.1192 5.9684 2.7629 20.634 20.296 41.268 40.592 61.877 60.913 2.1028 2.0734 4.9865 4.2346 3.1816 7.607-2.1953 4.102-5.0314 8.1708-9.5959 9.6911-2.6972 0.8984-4.6212-2.1669-6.5023-3.936-10.178-9.5726-20.251-19.257-30.405-28.855-10.153-9.5975-20.361-19.137-30.54-28.707-3.3809-3.1789-7.2858-5.8812-4.0342-11.72 1.8446-3.3128-1.7794-5.3846-3.8027-7.3424-8.6031-8.3246-17.39-16.459-26.058-24.718-1.6734-1.5944-3.2766-3.3187-4.6043-5.2003-0.9261-1.3121-0.1485-2.4614 1.4285-3.0525z"/>
	<path d="m102.82 795.1c2.1343 0.1113 3.6117 1.5544 5.2527 2.6328 11.107 7.2994 22.21 14.605 33.288 21.95 3.3176 2.2 6.3998 4.7556 10.818 4.3596 2.8211-0.253 5.0503 1.4825 7.2393 2.9731 24.448 16.65 48.918 33.267 73.279 50.043 5.662 3.899 5.5063 4.8223 0.483 12.129-3.9918 5.8062-4.0959 5.9724-10.18 2.1619-25.066-15.7-50.044-31.542-75.104-47.251-4.4072-2.7626-7.2827-5.4642-4.0292-11.187 2.8034-4.931-1.6425-7.2168-4.8353-9.377-11.284-7.6345-22.701-15.071-34.05-22.61-1.3563-0.9011-2.6705-1.8964-3.8494-3.0116-0.2848-0.2695-0.1411-1.3052 0.1479-1.7805 0.2908-0.4783 1.0079-0.6977 1.5399-1.0313z"/>
	<path d="m85.045 1270.6c-2.0842-0.7075-2.7156-2.1975-1.5189-3.8102 2.2274-3.0016 5.5755-4.6853 8.7635-6.4597 7.8445-4.3656 15.795-8.5437 23.597-12.982 5.3809-3.0609 11.428-5.1721 14.292-11.691 0.909-2.0691 4.0365-3.3148 6.3381-4.5975 24.976-13.92 49.995-27.763 74.988-41.654 3.6237-2.014 7.0544-4.2507 10.011 1.0481 2.7397 4.91 2.5616 7.1613-2.489 10.818-6.7315 4.8735-13.713 9.4036-20.614 14.04-17.114 11.499-34.202 23.04-51.39 34.427-6.4454 4.2698-6.8853 4.421-12.508-1.212-3.6689-3.6758-6.5016-2.0345-9.6899-0.1874-11.503 6.6646-22.965 13.4-34.439 20.115-1.6906 0.9894-3.1946 2.4424-5.3402 2.1456z"/>
	<path d="m199.99 1314.7c-4.1663-1.4224-5.5206 1.7418-7.2824 4.0226-6.5148 8.4341-12.951 16.929-19.46 25.368-1.4193 1.8398-2.9474 3.6101-4.5644 5.2775-0.9897 1.0205-2.3829 1.2701-3.5967 0.3826-1.1678-0.854-1.6389-2.2233-0.906-3.5046 0.9832-1.719 2.1936-3.3226 3.4233-4.8838 6.3901-8.1119 12.828-16.186 19.226-24.292 2.507-3.1763 4.8313-6.1837 2.5576-10.787-2.2037-4.4615 1.4286-7.5118 3.8986-10.518 13.325-16.214 26.75-32.346 40.134-48.512 3.8244-4.6195 7.5722-9.3038 11.454-13.874 4.7813-5.6298 5.9408-5.8501 10.538-2.4563 5.5815 4.1201 6.0154 6.3871 1.7901 12.44-5.91 8.4662-12.006 16.803-18.033 25.187-9.9185 13.795-19.814 27.607-29.794 41.358-2.3196 3.1958-4.4908 7.094-9.3845 4.7932z"/>
	<path d="m242.54 1220.3c-0.2336 3.6821-2.5994 5.7355-4.5635 7.882-9.44 10.318-19.014 20.513-28.509 30.781-7.6862 8.312-15.286 16.705-23.005 24.986-4.2777 4.5891-8.3807 9.1233-14.651 11.607-5.5757 2.2085-8.9153 7.8469-13.139 12.067-5.4172 5.4116-10.586 11.071-15.939 16.548-1.5298 1.5653-3.2686 4.5013-5.6373 2.493-2.7972-2.3718 0.5442-4.0166 1.9388-5.4995 7.5262-8.002 15.147-15.916 22.782-23.814 5.4713-5.6594 5.6853-5.7158 2.0533-13.121-1.6313-3.3262-0.8213-5.8711 1.3113-8.1711 3.8442-4.1459 7.8262-8.1764 11.923-12.074 17.13-16.295 34.319-32.528 51.502-48.768 1.8857-1.7822 3.7071-4.4484 6.7559-2.6212 3.149 1.887 5.6535 4.5736 7.1777 7.7041z"/>
	<path d="m260.21 1393.7c1.8776-5.3733 3.8488-11.008 5.8161-16.645 1.7506-5.0159 3.3395-10.095 5.2879-15.033 2.0779-5.2656 3.9245-9.9192-3.4915-12.891-4.2212-1.6915-2.4072-5.5804-1.2284-8.6779 4.2529-11.174 8.5709-22.324 12.87-33.481 5.1351-13.327 10.316-26.636 15.391-39.986 1.5908-4.1846 3.366-6.964 8.7422-4.8304 8.0904 3.2107 9.9698 5.0289 8.0479 10.927-4.3217 13.262-8.9887 26.41-13.467 39.621-3.4117 10.064-6.6816 20.176-10.151 30.22-1.6129 4.6687-2.893 9.5623-7.549 12.51-2.4371 1.5431-2.6079 4.5181-3.4847 6.9886-3.2197 9.0712-6.3892 18.16-9.5919 27.238-0.663 1.879-1.3074 3.7716-2.1089 5.5925-0.6496 1.4761-1.335 3.3381-3.4162 2.8838-2.3057-0.5029-1.4192-2.5581-1.666-4.436z"/>
	<path d="m292.03 1408.3c0.5924-12.013 4.3364-21.26 6.8365-30.762 1.7508-6.6532 4.9465-12.896 2.408-20.324-0.9244-2.7045 0.8412-6.4718 1.7658-9.6416 6.4266-22.032 12.93-44.041 19.462-66.042 2.8445-9.5815 4.4492-10.232 13.246-6.6511 4.5226 1.8413 5.8847 4.4678 4.6038 9.3048-3.3202 12.537-6.2417 25.18-9.2986 37.786-2.7427 11.31-5.4247 22.635-8.1927 33.939-1.1867 4.8462-2.9409 8.9857-9.377 7.6108-3.7167-0.7942-5.3459 1.499-6.2437 4.8208-2.5999 9.6201-5.2776 19.221-8.0633 28.789-1.056 3.6274-1.4573 7.7466-7.1471 11.17z"/>
	<path d="m278.99 1250.9c-0.0731 2.7407-1.2876 4.745-2.3894 6.7887-12.626 23.42-25.208 46.865-37.913 70.242-3.4476 6.3431-4.1095 6.8446-10.911 4.3083-4.6658-1.7399-6.8545 0.0688-8.925 3.5056-5.4913 9.1157-10.929 18.264-16.489 27.338-1.4562 2.3765-2.5444 7.3024-5.5703 5.6792-4.4097-2.365-0.063-5.6304 1.441-8.1654 4.2393-7.1456 8.8107-14.094 13.05-21.24 3.1583-5.3241 7.5435-10.147 7.0302-17.105-0.1058-1.4352 1.1578-3.0717 2.0322-4.4635 14.685-23.379 29.405-46.736 44.129-70.091 1.6062-2.5476 3.1674-5.566 6.9562-3.7777 3.2678 1.5426 6.6384 3.2002 7.5589 6.9798z"/>
	<path d="m369.6 610.22c2.2936-4.4171-0.6598-6.9439-3.1418-9.649-7.1925-7.8392-14.394-15.671-21.535-23.557-1.0398-1.1483-2.6615-2.6323-0.9985-4.197 1.5348-1.444 3.1814-0.1991 4.2979 1.0104 7.2141 7.8162 14.341 15.712 21.529 23.553 2.7173 2.9642 5.2794 6.006 10.182 3.9326 2.9203-1.235 4.9728 1.1249 6.802 3.0677 17.322 18.398 34.59 36.846 51.954 55.204 2.8595 3.0233 2.9025 5.7225 0.0949 8.6364-0.6919 0.7181-1.3587 1.4603-2.0387 2.1899-7.4539 7.9989-7.9756 8.0823-15.38 0.2151-15.494-16.463-30.959-32.956-46.27-49.588-2.7655-3.004-6.8829-5.6961-5.4957-10.819z"/>
	<path d="m380.54 1293.9c-2.6648 23.099-5.4227 46.187-7.936 69.303-0.7306 6.7191-5.6504 11.813-6.0685 18.776-0.6552 10.917-2.3928 21.77-3.6846 32.648-0.186 1.5663 0.2695 3.7238-1.9095 4.0417-2.6832 0.392-3.4825-1.9521-3.3846-3.8463 0.3078-5.9585 0.7472-11.936 1.6396-17.83 0.6971-4.6033 1.0171-9.248 1.7217-13.814 0.9895-6.4104 1.8244-11.563-7.0336-12.944-3.9766-0.6199-3.0666-5.2284-2.5117-8.5496 2.6287-15.73 5.2813-31.456 7.8759-47.192 1.2425-7.5359 2.3421-15.095 3.5665-22.634 1.0942-6.7382 2.5413-8.037 8.025-7.4314 7.6382 0.8435 10.286 3.3748 9.6998 9.4733z"/>
	<path d="m395.17 1418.5c-5.7664-0.2715-6.045-4.3054-5.6361-8.5345 0.705-7.2893 1.7096-14.55 2.4247-21.838 0.5506-5.6113 1.5831-11.351-4.7665-14.98-2.576-1.4725-2.5302-4.5343-2.3213-7.238 1.7703-22.895 3.433-45.8 5.4532-68.674 0.6437-7.2896 2.4942-8.2621 9.8547-7.1744 6.1263 0.9054 7.449 2.1079 7.4016 8.3588-0.1288 16.978-0.2914 33.961-0.8813 50.926-0.1841 5.2972-0.9427 10.588-0.8178 15.928 0.0895 3.8228-0.6143 7.4291-4.5507 9.2316-3.295 1.5087-3.612 4.3771-4.0323 7.4199-1.188 8.6003-1.2733 17.248-0.9021 25.876 0.1617 3.7565-0.247 7.2791-1.3307 10.801l0.1046-0.1019z"/>
	<path d="m409.75 518.79c7.4046 7.2857 13.924 13.766 20.522 20.165 3.2954 3.1959 6.2292 6.7393 11.486 7.2388 3.4146 0.3245 5.3878 3.6486 7.7351 5.9603 13.962 13.749 27.936 27.486 41.834 41.298 2.4561 2.4409 6.8734 4.3455 5.1476 8.7271-1.9565 4.9675-5.5756 9.1552-10.192 11.87-2.8505 1.6763-4.7621-1.4062-6.5753-3.2077-9.6612-9.5987-19.253-19.267-28.889-28.892-5.8749-5.8685-11.743-11.746-17.694-17.536-3.7124-3.6118-6.0286-7.1312-1.3271-11.758 2.6901-2.6473 0.5809-4.7634-1.3404-6.7447-6.0108-6.1987-12.071-12.352-17.961-18.664-1.6388-1.7557-4.636-3.0227-2.7465-8.4579z"/>
	<path d="m430.34 503.62c2.5761-1.3596 3.7781 0.7553 5.1239 1.9659 5.1911 4.6699 10.375 9.3592 15.342 14.263 3.9402 3.89 7.3218 8.0999 12.988 2.015 2.2115-2.3753 4.9418-0.4933 7.0111 1.4063 15.679 14.394 31.344 28.806 47.041 43.18 3.2922 3.0148 3.2436 5.8468 0.7538 9.5732-7.8331 11.724-9.2542 11.983-19.065 2.5517-12.947-12.446-25.969-24.813-38.964-37.209-3.125-2.981-6.4073-5.7734-7.2734-10.415-0.5859-3.1405-3.3273-4.8522-5.449-6.9373-4.9813-4.8953-10.009-9.747-14.869-14.76-1.4484-1.4936-4.0031-2.7725-2.639-5.634z"/>
	<path d="m423.09 1393.6c-1.0326-6.4905 0.5758-14.972-3.6421-22.779-1.2933-2.3937-0.7188-5.8533-0.8108-8.8306-0.616-19.946 0.4189-39.915-1.0009-59.856-0.4929-6.9227 1.1799-9.0002 6.0681-9.2688 7.4827-0.4111 11.379 2.2424 11.841 8.6736 1.43 19.903 2.6194 39.823 3.9987 59.73 0.4431 6.3938 0.3405 12.062-8.0169 13.28-3.7101 0.5406-4.0258 3.8937-3.967 7.0594 0.136 7.3118 0.2278 14.624 0.3576 21.936 0.0354 1.995 0.2928 3.9977 0.1745 5.9805-0.1251 2.0969 1.057 5.5446-2.4168 5.3848-2.9369-0.1354-2.3-3.5269-2.5226-5.7047-0.2019-1.9752-0.0595-3.9858-0.0622-5.9808-0.0036-2.6602-9e-4 -5.3203-9e-4 -9.6233z"/>
	<path d="m465.79 466.42c8.5406 3.6053 13.354 8.7449 18.978 12.63 4.0423 2.7931 7.4578 6.5674 13.062 6.5248 2.7222-0.0208 4.6219 2.452 6.7589 4.0082 13.722 9.9926 27.446 19.983 41.146 30.007 7.8354 5.7327 7.9485 6.4158 2.9021 14.379-0.5342 0.8433-1.0726 1.6852-1.6417 2.5052-4.9563 7.1425-5.455 7.2826-12.272 1.9124-14.12-11.124-28.16-22.35-42.263-33.495-4.1323-3.2658-8.0304-6.387-3.4851-12.216 2.1862-2.8037 0.3101-5.0175-1.9244-6.7462-4.2082-3.2557-8.586-6.2963-12.733-9.6262-2.7541-2.2115-6.3103-3.743-8.5283-9.8832z"/>
	<path d="m585.89 1355.8c-0.2932 0.6335-0.4077 1.4489-0.8657 1.7637-1.3259 0.9108-2.6483 0.3093-3.4141-0.8009-3.2099-4.6547-6.3157-9.382-9.4029-14.12-1.0889-1.6709-2.0412-3.4335-3.011-5.1792-1.7078-3.0742-4.0262-4.5529-7.3199-2.4094-5.5333 3.6013-8.3926 0.7408-10.964-3.9971-7.6235-14.044-15.402-28.005-23.141-41.987-1.7188-3.1055-3.0738-5.9846 1.0436-8.4784 5.6053-3.3951 10.977-4.0493 13.546-1.0557 1.9404 2.2616 3.549 4.8252 5.1648 7.3445 5.3904 8.4052 10.905 16.74 16.006 25.318 3.6442 6.1281 8.0448 11.567 9.0774 19.489 0.7444 5.7117 6.1509 10.807 9.4415 16.2 1.5376 2.5198 3.7641 4.7216 3.8397 7.912z"/>
	<path d="m562.28 1264.7c2.8931-0.0233 4.5547 1.6167 6.0718 3.4082 9.4462 11.154 18.891 22.31 28.276 33.516 1.7462 2.0848 3.3315 4.6295 1.403 7.2268-2.9691 3.9988-0.7003 6.7432 1.6524 9.6602 3.7517 4.6517 7.515 9.2959 11.183 14.013 1.0452 1.344 1.7326 3.2144 0.3766 4.5428-2.1989 2.1538-3.5859-0.1667-4.7355-1.5483-3.1844-3.827-6.1782-7.8131-9.2451-11.738-2.809-3.5947-4.8423-7.9374-11.118-5.8167-3.0887 1.0439-5.0953-2.4734-6.8708-4.8746-8.2947-11.218-16.619-22.416-24.805-33.714-1.6718-2.3074-4.5604-4.8391-2.6325-7.944 2.3541-3.7912 6.6641-5.2331 10.444-6.7319z"/>
	<path d="m223.12 904.21c-2.8084 2.3887-4.7276 0.5743-6.6463-0.5256-43.254-24.793-86.496-49.609-129.73-74.432-1.1493-0.6598-2.2674-1.391-3.3259-2.1874-1.4795-1.113-2.1637-2.5382-0.9409-4.2237 0.9465-1.3043 2.3093-1.1512 3.565-0.5176 1.1817 0.5963 2.2616 1.3906 3.4098 2.0576 41.672 24.208 83.361 48.386 124.99 72.666 3.2037 1.8685 7.4266 2.8801 8.6808 7.1625z"/>
	<path d="m22.436 1073.4c1.1116-4.0472 4.5639-3.2258 7.3333-3.3909 22.59-1.3458 45.189-2.5385 67.779-3.8961 26.89-1.616 53.771-3.3782 80.661-4.9979 3.7009-0.2229 7.7725-1.7084 11.274 1.8756-9.5672 4.1404-158.87 13.307-167.05 10.409z"/>
	<path d="m226.25 1208c-10.656 8.925-21.266 17.905-31.976 26.764-23.852 19.728-47.737 39.415-71.655 59.063-3.335 2.7396-6.8621 5.2616-10.43 7.6931-1.62 1.1038-3.2353 0.3184-4.3088-1.1639-0.9299-1.2839-0.3812-2.6942 0.5558-3.6116 1.6559-1.6211 3.5259-3.0321 5.3628-4.4584 29.428-22.852 58.879-45.675 88.29-68.549 7.5492-5.8712 14.978-11.898 22.461-17.853 0.5667 0.705 1.1334 1.4102 1.7 2.1154z"/>
	<path d="m287.77 1256.1c2.0493 3.6376-0.331 6.1136-1.4299 8.5642-12.789 28.521-25.707 56.985-38.555 85.479-3.8264 8.486-7.537 17.024-11.316 25.531-0.8094 1.8219-1.5232 3.7155-2.5707 5.3955-1.4585 2.3389-2.2943 6.7706-6.0469 4.8644-3.0865-1.5679-0.4581-4.7717 0.5762-7.0183 5.7002-12.381 11.515-24.709 17.305-37.049 12.148-25.887 24.271-51.785 36.506-77.631 1.3182-2.7846 1.6903-6.4136 5.5317-8.137z"/>
	<path d="m189.5 983.28c-0.841 1.6141-2.1313 2.0405-3.4403 1.7811-51.559-10.218-103.11-20.471-154.65-30.812-0.6426-0.1289-1.045-1.4542-1.4752-2.0952 0.8614-1.6203 2.1668-1.9871 3.4622-1.7314 51.57 10.182 103.13 20.397 154.68 30.703 0.6278 0.1252 1.007 1.4937 1.4219 2.1541z"/>
	<path d="m141.83 745.36c5.5284 0.2578 7.8256 3.4033 10.543 5.6544 35.095 29.069 70.16 58.175 105.13 87.389 2.5956 2.1682 8.5318 4.8901 6.0874 7.6275-3.5293 3.9521-6.6197-2.0917-9.2845-4.2883-35.164-28.985-70.17-58.162-105.18-87.336-2.6794-2.2329-5.922-4.1302-7.3023-9.0464z"/>
	<path d="m333.1 769.32c-2.5054 1.402-3.6801-0.6269-4.9471-1.9709-30.988-32.875-61.963-65.762-92.866-98.717-1.839-1.9611-6.1091-4.265-3.0993-7.1262 3.337-3.1723 4.8058 1.737 6.5363 3.5948 30.57 32.818 61.055 65.715 91.524 98.627 1.4306 1.5452 4.1683 2.5828 2.8527 5.5922z"/>
	<path d="m352.73 1284c1.411 8.6592-1.189 15.293-2.4193 21.897-6.2628 33.622-12.94 67.166-19.521 100.73-0.601 3.0649-0.237 8.219-4.525 7.4023-4.4032-0.8385-2.0055-5.5245-1.3751-8.4897 7.9398-37.346 15.978-74.672 24.035-111.99 0.6063-2.8079 1.1066-5.7342 3.8051-9.5444z"/>
	<path d="m446.2 1297.2c3.8684 1.1919 3.3609 3.8717 3.6222 5.9968 4.0975 33.338 8.1353 66.683 12.181 100.03 0.1602 1.3197 0.337 2.6439 0.3768 3.97 0.0538 1.7867-0.4765 3.4797-2.5146 3.574-1.3854 0.0641-2.3952-1.1968-2.7725-2.5078-0.5486-1.9075-0.9913-3.8722-1.2149-5.8425-3.6357-32.046-7.2509-64.095-10.797-96.151-0.3225-2.9144-0.8605-5.9695 1.1184-9.0674z"/>
	<path d="m201.71 1153.1c-0.2403 2.1901-1.5671 2.6458-2.8093 3.0297-41.007 12.675-81.17 27.848-121.95 41.188-6.0067 1.965-11.885 4.3204-17.865 6.3702-2.08 0.7131-4.9995 2.2106-5.9001-0.954-0.8892-3.1241 2.5835-3.4575 4.5556-4.1398 7.2332-2.5027 14.541-4.7981 21.862-7.0369 39.134-11.968 78.216-24.096 116.82-37.716 1.5158-0.5347 2.9795-1.5164 5.2914-0.7418z"/>
	<path d="m559.18 1375c-0.6326 0.8573-1.0463 1.9738-1.7802 2.2556-0.7331 0.2813-2.0557 0.0159-2.6385-0.5269-0.9308-0.8666-1.5818-2.1041-2.1467-3.283-12.916-26.96-25.808-53.932-38.681-80.913-0.5661-1.1863-1.0127-2.4561-1.3131-3.7343-0.2333-0.993 0.1447-1.9816 1.1373-2.4447 1.0483-0.4893 2.08-0.0211 2.6396 0.8044 1.1098 1.6371 2.1103 3.3683 2.9749 5.1487 12.482 25.698 24.939 51.409 37.384 77.126 0.863 1.7837 1.5865 3.6346 2.4238 5.5671z"/>
	<path d="m449.92 485.17c2.72-0.2095 4.1133 1.9286 5.8242 3.3802 9.9012 8.4002 19.724 16.893 29.622 25.296 12.944 10.988 25.946 21.905 38.891 32.892 2.283 1.9378 4.4407 4.0286 6.5858 6.1211 0.9589 0.9354 1.8959 2.2636 0.9611 3.4862-1.2606 1.6486-3.0715 1.114-4.3997-0.0067-4.3244-3.6488-8.5016-7.4714-12.803-11.148-20.249-17.306-40.529-34.576-60.771-51.89-1.7589-1.5046-3.4598-3.1273-4.9193-4.9142-1.002-1.2263-0.3594-2.4439 1.0085-3.217z"/>
	<path d="m348.85 1417.7c-0.2463 0.173-0.5052 0.4955-0.7352 0.476-0.2229-0.0189-0.6282-0.5249-0.5898-0.5853 0.4877-0.7651 0.9567-0.7113 1.325 0.1093z"/>
	<polygon points="402.48 1419.6 401.88 1419.7 401.97 1419.3"/>
	<path d="m395.06 1418.6s0.1042-0.1027 0.1044-0.1022c1e-4 4e-4 -0.1044 0.1022-0.1044 0.1022z"/>
</svg>
